<?xml version="1.0" encoding="UTF-8"?>
<!DOCTYPE svg PUBLIC "-//W3C//DTD SVG 1.1//EN" "http://www.w3.org/Graphics/SVG/1.1/DTD/svg11.dtd">
<svg xmlns="http://www.w3.org/2000/svg" version="1.1" width="36px" height="36px" style="shape-rendering:geometricPrecision; text-rendering:geometricPrecision; image-rendering:optimizeQuality; fill-rule:evenodd; clip-rule:evenodd" xmlns:xlink="http://www.w3.org/1999/xlink">
<g><path style="opacity:0.978" fill="#fefefe" d="M 12.5,-0.5 C 15.8333,-0.5 19.1667,-0.5 22.5,-0.5C 28.5,2.16667 32.8333,6.5 35.5,12.5C 35.5,15.8333 35.5,19.1667 35.5,22.5C 32.8333,28.5 28.5,32.8333 22.5,35.5C 19.1667,35.5 15.8333,35.5 12.5,35.5C 6.5,32.8333 2.16667,28.5 -0.5,22.5C -0.5,19.1667 -0.5,15.8333 -0.5,12.5C 2.16667,6.5 6.5,2.16667 12.5,-0.5 Z M 17.5,6.5 C 19.4459,9.4628 21.4459,12.4628 23.5,15.5C 23.2387,18.6976 21.572,20.6976 18.5,21.5C 19.1667,21.8333 19.8333,22.1667 20.5,22.5C 23.3252,20.8781 26.3252,20.0448 29.5,20C 27.4565,21.708 25.7899,23.708 24.5,26C 19.8333,26.6667 15.1667,26.6667 10.5,26C 8.39297,24.7365 7.39297,22.9032 7.5,20.5C 10.1403,20.5533 12.6403,21.22 15,22.5C 18.1081,21.669 17.9415,20.8357 14.5,20C 17.1667,16.3333 17.1667,12.6667 14.5,9C 16.1193,8.76445 17.1193,7.93112 17.5,6.5 Z M 12.5,11.5 C 14.4411,13.0106 14.9411,15.0106 14,17.5C 12.2739,18.5762 10.4406,18.7429 8.5,18C 10.0585,15.9481 11.3918,13.7815 12.5,11.5 Z"/></g>
</svg>
